<?xml version="1.0" encoding="utf-8"?>
<svg viewBox="0 0 450 450" xmlns="http://www.w3.org/2000/svg" xmlns:bx="https://boxy-svg.com">
  <defs>
    <bx:grid x="0" y="0" width="10" height="10"/>
  </defs>
  <path style="fill: none; stroke: rgb(255, 63, 64); stroke-width: 62.7685px; stroke-linejoin: round;" transform="matrix(0.333654, 0.000004, -0.000004, 0.33365, 164.42865, 172.288376)" d="M 71.789 -488.237 L 289.469 -488.237 L 295.827 -344.86 A 514.973 514.973 0 0 1 454.085 -279.308 L 559.963 -376.195 L 713.887 -222.271 L 617 -116.393 A 514.973 514.973 0 0 1 682.552 41.865 L 825.929 48.223 L 825.929 265.903 L 682.552 272.261 A 514.973 514.973 0 0 1 617 430.519 L 713.887 536.397 L 559.963 690.321 L 454.085 593.434 A 514.973 514.973 0 0 1 295.827 658.986 L 289.469 802.363 L 71.789 802.363 L 65.431 658.986 A 514.973 514.973 0 0 1 -92.827 593.434 L -198.705 690.321 L -352.629 536.397 L -255.742 430.519 A 514.973 514.973 0 0 1 -321.294 272.261 L -464.671 265.903 L -464.671 48.223 L -321.294 41.865 A 514.973 514.973 0 0 1 -255.742 -116.393 L -352.629 -222.271 L -198.705 -376.195 L -92.827 -279.308 A 514.973 514.973 0 0 1 65.431 -344.86 Z M 180.629 -14.84 A 171.903 171.903 0 0 0 180.629 328.966 A 171.903 171.903 0 0 0 180.629 -14.84" bx:shape="cog 180.629 157.063 171.903 514.973 645.3 0.149 8 1@13ddcc4a"/>
</svg>